<svg width="24" height="24" viewBox="0 0 24 24" fill="none" xmlns="http://www.w3.org/2000/svg">
<g clip-path="url(#clip0_357_30718)">
<path d="M7.99969 23.32V17.8L3.87969 20.84C5.03969 21.92 6.43969 22.76 7.99969 23.32ZM15.9997 23.32C17.5597 22.76 18.9597 21.92 20.1197 20.84L15.9997 17.76V23.32ZM0.679688 16C0.799687 16.4 0.959688 16.76 1.15969 17.16L2.71969 16H0.679688ZM21.2797 16L22.8397 17.16C22.9997 16.8 23.1597 16.4 23.3197 16H21.2797Z" fill="#2A5F9E"/>
<path d="M8.60023 14.4H0.240234C0.360234 14.96 0.520234 15.48 0.680234 16H2.72023L1.16023 17.16C1.48023 17.84 1.84023 18.44 2.28023 19.04L6.40023 16H8.00023V16.8L3.32023 20.24L3.88023 20.8L8.00023 17.8V23.32C8.52023 23.52 9.04023 23.64 9.60023 23.76V14.4H8.60023ZM23.7602 14.4H14.4002V23.76C14.9602 23.64 15.4802 23.48 16.0002 23.32V17.8L20.1202 20.8C20.6802 20.28 21.1602 19.72 21.6402 19.12L17.3602 16H20.0802L22.5202 17.8C22.6402 17.6 22.7602 17.36 22.8402 17.16L21.2802 16H23.3202C23.4802 15.48 23.6402 14.96 23.7602 14.4Z" fill="white"/>
<path d="M2.28027 19.04C2.60027 19.48 2.92027 19.88 3.28027 20.28L8.00027 16.84V16.04H6.40027L2.28027 19.04ZM17.4003 16L21.6803 19.12C21.8403 18.92 21.9603 18.72 22.1203 18.52C22.1603 18.48 22.1603 18.44 22.2003 18.44C22.3203 18.24 22.4803 18 22.6003 17.8L20.0803 16H17.4003Z" fill="#ED4C5C"/>
<path d="M15.9997 0.679962V6.19996L20.1197 3.15996C18.9597 2.07996 17.5597 1.23996 15.9997 0.679962ZM7.99969 0.679962C6.43969 1.23996 5.03969 2.07996 3.87969 3.15996L7.99969 6.23996V0.679962ZM23.3197 7.99996C23.1997 7.59996 23.0397 7.23996 22.8397 6.83996L21.2797 7.99996H23.3197ZM2.71969 7.99996L1.15969 6.83996C0.999687 7.23996 0.839687 7.59996 0.679688 7.99996H2.71969Z" fill="#2A5F9E"/>
<path d="M15.4002 9.60011H23.7202C23.6002 9.04011 23.4402 8.52011 23.2802 8.00011H21.2402L22.8002 6.84011C22.4802 6.16011 22.1202 5.56011 21.6802 4.96011L17.6002 8.00011H16.0002V7.20011L20.6802 3.76011L20.1202 3.20011L16.0002 6.20011V0.680112C15.4802 0.480112 14.9602 0.360112 14.4002 0.240112V9.60011H15.4002ZM0.240234 9.60011H9.60023V0.240112C9.04023 0.360112 8.52023 0.520112 8.00023 0.680112V6.20011L3.88023 3.20011C3.32023 3.72011 2.84023 4.28011 2.36023 4.88011L6.64023 8.00011H3.92023L1.48023 6.20011C1.36023 6.40011 1.24023 6.64011 1.16023 6.84011L2.72023 8.00011H0.680234C0.520234 8.52011 0.360234 9.04011 0.240234 9.60011Z" fill="white"/>
<path d="M21.7195 4.96006C21.3995 4.52006 21.0795 4.12006 20.7195 3.72006L15.9995 7.16006V7.96006H17.5995L21.7195 4.96006ZM6.59945 8.00006L2.35945 4.88006C2.19945 5.08006 2.07945 5.28006 1.91945 5.48006C1.87945 5.52006 1.87945 5.56006 1.83945 5.56006C1.71945 5.76006 1.55945 6.00006 1.43945 6.20006L3.87945 8.00006H6.59945Z" fill="#ED4C5C"/>
<path d="M23.76 9.6H14.4V0.24C13.64 0.08 12.84 0 12 0C11.16 0 10.36 0.08 9.6 0.24V9.6H0.24C0.08 10.36 0 11.16 0 12C0 12.84 0.08 13.64 0.24 14.4H9.6V23.76C10.36 23.92 11.16 24 12 24C12.84 24 13.64 23.92 14.4 23.76V14.4H23.76C23.92 13.64 24 12.84 24 12C24 11.16 23.92 10.36 23.76 9.6Z" fill="#ED4C5C"/>
</g>
<defs>
<clipPath id="clip0_357_30718">
<rect width="24" height="24" fill="white"/>
</clipPath>
</defs>
</svg>
