<svg width="802" height="738" viewBox="0 0 802 738" fill="none" xmlns="http://www.w3.org/2000/svg">
<path d="M570.426 657.114C644.269 657.114 704.13 639.355 704.13 617.447C704.13 595.54 644.269 577.781 570.426 577.781C496.584 577.781 436.723 595.54 436.723 617.447C436.723 639.355 496.584 657.114 570.426 657.114Z" fill="#14B8A6" stroke="#14B8A6" stroke-width="1.193" stroke-linecap="round" stroke-linejoin="round"/>
<path d="M570.425 596.021C633.666 596.021 686.629 608.984 700.536 626.559C702.732 624.017 703.999 620.804 704.129 617.447C704.129 595.522 644.259 577.762 570.425 577.762C496.592 577.762 436.703 595.522 436.703 617.447C436.833 620.804 438.1 624.017 440.296 626.559C454.203 609.059 507.166 596.021 570.425 596.021Z" fill="white" stroke="#14B8A6" stroke-width="1.193" stroke-linecap="round" stroke-linejoin="round"/>
<path d="M552.167 652.133C507.501 650.114 473.797 641.021 473.797 629.91C473.82 628.698 474.2 627.519 474.889 626.521" stroke="white" stroke-width="1.193" stroke-linecap="round" stroke-linejoin="round"/>
<path d="M655.815 619.096C663.463 622.336 667.833 626.04 667.833 629.985C667.833 642.448 624.389 652.54 570.815 652.54H568.5" stroke="white" stroke-width="1.193" stroke-linecap="round" stroke-linejoin="round"/>
<path d="M486.852 618.67C503.648 611.947 535 607.41 570.815 607.41C591.194 607.253 611.547 608.92 631.629 612.392" stroke="white" stroke-width="1.193" stroke-linecap="round" stroke-linejoin="round"/>
<path d="M550.889 637.725C539.574 636.151 532 633.281 532 629.984C532 625.003 549.389 620.966 570.889 620.966C592.389 620.966 609.685 625.003 609.685 629.984C609.685 634.262 596.907 637.836 579.759 638.762" stroke="white" stroke-width="1.193" stroke-linecap="round" stroke-linejoin="round"/>
<path d="M33.4453 457.985C91.7601 441.411 214.464 408.707 282.186 406.244C373.223 403.022 526.927 469.096 622.89 480.67C718.853 492.244 783.334 488.948 783.334 488.948" stroke="#D1D5DB" stroke-width="1.193" stroke-linecap="round" stroke-linejoin="round"/>
<path d="M1 467.448C1 467.448 6.03704 465.91 14.8704 463.336" stroke="#D1D5DB" stroke-width="1.193" stroke-linecap="round" stroke-linejoin="round"/>
<path d="M757.428 364.355C723.813 356.971 689.423 353.719 655.02 354.67C583.872 357.059 506.872 366.466 411.668 378.744C316.465 391.022 180.89 323.188 88.7053 348.355C-3.47988 373.522 3.52012 381.096 3.52012 381.096" stroke="#D1D5DB" stroke-width="1.193" stroke-linecap="round" stroke-linejoin="round"/>
<path d="M783.647 371.17C783.647 371.17 780.055 369.985 773.555 368.262" stroke="#D1D5DB" stroke-width="1.193" stroke-linecap="round" stroke-linejoin="round"/>
<path d="M612.945 196.262C611.92 192.1 609.53 188.402 606.156 185.758C602.783 183.114 598.62 181.677 594.334 181.677C590.047 181.677 585.885 183.114 582.511 185.758C579.137 188.402 576.747 192.1 575.723 196.262H612.945Z" stroke="#D1D5DB" stroke-width="1.193" stroke-linecap="round" stroke-linejoin="round"/>
<path d="M801 196.262C799.875 191.519 797.316 187.237 793.671 184C790.026 180.763 785.473 178.727 780.63 178.17C782.153 170.125 781.879 161.843 779.827 153.917C777.776 145.991 773.998 138.616 768.764 132.32C763.53 126.024 756.969 120.963 749.55 117.499C742.132 114.034 734.039 112.253 725.852 112.281C712.778 112.281 700.12 116.881 690.096 125.273C680.071 133.666 673.318 145.318 671.019 158.188C665.761 154.077 659.454 151.526 652.816 150.828C646.179 150.13 639.479 151.312 633.481 154.24C627.483 157.167 622.429 161.722 618.896 167.384C615.363 173.047 613.493 179.588 613.5 186.262C613.511 189.66 614.003 193.04 614.963 196.299L801 196.262Z" stroke="#D1D5DB" stroke-width="1.193" stroke-linecap="round" stroke-linejoin="round"/>
<path d="M281.685 240.966C281.175 238.842 279.965 236.952 278.25 235.6C276.535 234.248 274.415 233.513 272.231 233.513C270.047 233.513 267.927 234.248 266.212 235.6C264.497 236.952 263.287 238.842 262.777 240.966H281.685Z" stroke="#D1D5DB" stroke-width="1.193" stroke-linecap="round" stroke-linejoin="round"/>
<path d="M377.146 240.966C376.584 238.545 375.288 236.356 373.435 234.699C371.582 233.042 369.263 231.997 366.794 231.707C367.685 227.971 367.806 224.093 367.149 220.309C366.492 216.525 365.071 212.914 362.972 209.697C360.874 206.48 358.142 203.725 354.944 201.598C351.746 199.472 348.148 198.02 344.369 197.329C340.591 196.639 336.712 196.726 332.969 197.584C329.225 198.443 325.695 200.055 322.595 202.322C319.495 204.589 316.889 207.464 314.937 210.771C312.985 214.079 311.726 217.749 311.239 221.559C308.57 219.473 305.369 218.179 302.001 217.825C298.632 217.47 295.232 218.07 292.187 219.554C289.143 221.039 286.577 223.349 284.782 226.221C282.987 229.093 282.035 232.412 282.035 235.799C282.044 237.529 282.293 239.25 282.776 240.911L377.146 240.966Z" stroke="#D1D5DB" stroke-width="1.193" stroke-linecap="round" stroke-linejoin="round"/>
<path d="M367.535 270.855C367.216 269.514 366.454 268.319 365.372 267.465C364.29 266.61 362.951 266.145 361.572 266.145C360.194 266.145 358.855 266.61 357.773 267.465C356.691 268.319 355.929 269.514 355.609 270.855H367.535Z" stroke="#D1D5DB" stroke-width="1.193" stroke-linecap="round" stroke-linejoin="round"/>
<path d="M427.795 270.855C427.435 269.333 426.614 267.96 425.444 266.922C424.273 265.885 422.812 265.234 421.258 265.059C421.459 263.978 421.558 262.88 421.554 261.781C421.499 257.364 419.808 253.124 416.808 249.881C413.809 246.639 409.713 244.623 405.314 244.225C400.915 243.826 396.524 245.073 392.99 247.724C389.457 250.375 387.032 254.242 386.184 258.577C384.499 257.262 382.478 256.447 380.351 256.224C378.225 256.002 376.079 256.382 374.159 257.32C372.238 258.258 370.619 259.717 369.488 261.531C368.356 263.344 367.756 265.439 367.758 267.577C367.76 268.668 367.915 269.753 368.221 270.799L427.795 270.855Z" stroke="#D1D5DB" stroke-width="1.193" stroke-linecap="round" stroke-linejoin="round"/>
<path d="M666.592 409.855H474.48V563.781H666.592V409.855Z" fill="#CCFBF1" stroke="#4B5563" stroke-width="1.193" stroke-linecap="round" stroke-linejoin="round"/>
<path d="M239.24 484.188C238.588 484.197 237.947 484.024 237.388 483.688C236.578 483.188 235.991 482.396 235.75 481.475C235.509 480.555 235.631 479.577 236.092 478.744C236.999 477.151 465.962 227.466 570.721 135.91C571.086 135.617 571.55 135.473 572.017 135.507C572.484 135.542 572.921 135.752 573.24 136.096C573.544 136.463 573.695 136.934 573.66 137.411C573.626 137.887 573.409 138.331 573.054 138.651C468.814 229.818 243.24 480.799 242.332 482.373C242.024 482.923 241.575 483.38 241.032 483.699C240.488 484.018 239.87 484.187 239.24 484.188Z" fill="#4B5563"/>
<path d="M562.11 396.651V146.114C562.11 146.114 557.055 164.244 557.055 165.558" stroke="#4B5563" stroke-width="1.193" stroke-linecap="round" stroke-linejoin="round"/>
<path d="M564.853 409.207V400.392C564.853 399.807 564.621 399.247 564.207 398.834C563.794 398.42 563.233 398.188 562.649 398.188C562.065 398.188 561.504 398.42 561.091 398.834C560.677 399.247 560.445 399.807 560.445 400.392V409.207H564.853Z" fill="#4B5563"/>
<path d="M582.481 387.762V388.207C582.301 387.87 582.035 387.587 581.709 387.388C581.384 387.19 581.01 387.082 580.629 387.077C580.039 387.077 579.474 387.311 579.057 387.728C578.641 388.145 578.406 388.71 578.406 389.299V412.836C578.406 414.636 577.693 416.362 576.422 417.636C575.152 418.91 573.428 419.628 571.629 419.633C570.697 419.634 569.776 419.438 568.925 419.059C568.434 419.791 568.22 420.674 568.322 421.55C568.424 422.426 568.834 423.236 569.481 423.836C570.189 423.97 570.908 424.038 571.629 424.04C573.1 424.04 574.557 423.75 575.916 423.187C577.275 422.624 578.511 421.799 579.551 420.759C580.591 419.718 581.417 418.483 581.98 417.124C582.543 415.765 582.832 414.308 582.832 412.836V401.929H587.906L582.481 387.762Z" fill="#4B5563"/>
<path d="M562.297 143.762C562.297 143.762 566.223 129.818 562.742 131.114C559.26 132.41 562.297 143.762 562.297 143.762Z" stroke="#4B5563" stroke-width="1.193" stroke-linecap="round" stroke-linejoin="round"/>
<path d="M562.294 143.762C562.294 143.762 547.479 138.522 548.794 143.318C550.108 148.114 562.294 143.762 562.294 143.762Z" stroke="#4B5563" stroke-width="1.193" stroke-linecap="round" stroke-linejoin="round"/>
<path d="M251.888 434.503C251.888 434.503 263.24 422.392 270.055 422.392C276.87 422.392 289.74 433.744 288.981 439.799C288.222 445.855 276.87 440.559 276.87 440.559C276.87 440.559 266.259 454.947 255.666 452.67C245.073 450.392 251.888 434.503 251.888 434.503Z" fill="#14B8A6" stroke="#4B5563" stroke-width="1.193" stroke-linecap="round" stroke-linejoin="round"/>
<path d="M276.926 440.521C276.926 440.521 283.871 445.336 284.482 448.725C285.093 452.114 276.778 461.688 267.537 463.836C258.297 465.984 253.352 460.744 256.13 455.818C258.908 450.892 269.926 440.966 276.926 440.521Z" fill="#14B8A6" stroke="#4B5563" stroke-width="1.193" stroke-linecap="round" stroke-linejoin="round"/>
<path d="M242.834 265.299C242.834 265.299 224.556 255.059 188.704 260.188C152.852 265.318 146.019 294.873 151.871 325.596C157.723 356.318 191.63 382.336 196.76 380.151C201.889 377.966 195.297 309.188 207 296.022C218.704 282.855 256.741 285.059 258.852 274.818C260.963 264.577 242.834 265.299 242.834 265.299Z" fill="#4B5563" stroke="#4B5563" stroke-width="1.193" stroke-linecap="round" stroke-linejoin="round"/>
<path d="M179.109 283.54L182.813 307.744C182.813 307.744 159.85 370.429 163.572 379.133C167.294 387.836 202.035 390.91 202.035 390.91C202.035 390.91 258.517 397.744 275.276 390.91C292.035 384.077 283.35 364.225 281.48 358.651C279.609 353.077 269.072 308.373 269.072 308.373C269.072 308.373 272.776 297.818 272.776 292.244C272.776 286.67 272.146 271.133 269.665 267.411C267.183 263.688 223.739 259.336 204.498 262.448C185.257 265.559 176.628 270.522 179.109 283.54Z" fill="#9CA3AF" stroke="#4B5563" stroke-width="1.193" stroke-linecap="round" stroke-linejoin="round"/>
<path d="M189.052 311.484C189.052 311.484 188.423 365.466 191.534 376.021C194.645 386.577 207.052 398.984 233.108 395.873C259.163 392.762 261.663 367.947 261.663 367.947L259.812 310.244L189.052 311.484Z" fill="white" stroke="#4B5563" stroke-width="1.193" stroke-linecap="round" stroke-linejoin="round"/>
<path d="M233.74 350.262C233.743 351.186 233.473 352.09 232.962 352.86C232.452 353.63 231.724 354.231 230.872 354.587C230.019 354.943 229.08 355.038 228.174 354.86C227.267 354.682 226.434 354.239 225.78 353.587C225.125 352.935 224.679 352.104 224.497 351.198C224.316 350.292 224.407 349.353 224.76 348.499C225.112 347.645 225.71 346.915 226.478 346.402C227.246 345.888 228.149 345.614 229.073 345.614C229.685 345.612 230.291 345.73 230.857 345.963C231.423 346.195 231.938 346.537 232.372 346.969C232.805 347.401 233.149 347.914 233.384 348.479C233.619 349.044 233.74 349.65 233.74 350.262Z" stroke="#4B5563" stroke-width="1.193" stroke-miterlimit="10"/>
<path d="M233.109 369.818C233.109 370.434 232.926 371.036 232.583 371.548C232.241 372.06 231.754 372.459 231.184 372.694C230.615 372.929 229.988 372.989 229.384 372.868C228.78 372.746 228.226 372.448 227.791 372.011C227.357 371.574 227.062 371.018 226.944 370.413C226.826 369.809 226.891 369.183 227.129 368.615C227.367 368.046 227.769 367.562 228.283 367.222C228.797 366.883 229.4 366.703 230.016 366.707C230.424 366.707 230.828 366.787 231.204 366.944C231.581 367.101 231.922 367.33 232.21 367.619C232.497 367.908 232.725 368.251 232.879 368.629C233.033 369.006 233.111 369.41 233.109 369.818V369.818Z" fill="#4B5563"/>
<path d="M214.367 330.355C216.349 332.503 217.034 335.077 215.923 336.133C214.812 337.188 212.219 336.299 210.275 334.17C208.33 332.04 207.59 329.466 208.719 328.41C209.849 327.355 212.386 328.225 214.367 330.355Z" fill="#4B5563"/>
<path d="M239.572 330.355C237.59 332.503 236.886 335.077 238.016 336.133C239.146 337.188 241.72 336.299 243.572 334.17C245.423 332.04 246.257 329.466 245.127 328.41C243.998 327.355 241.553 328.225 239.572 330.355Z" fill="#4B5563"/>
<path d="M201.109 323.04C202.499 320.988 204.497 319.424 206.823 318.567C209.148 317.71 211.683 317.603 214.072 318.262" stroke="#4B5563" stroke-width="1.193" stroke-linecap="round" stroke-linejoin="round"/>
<path d="M238.59 318.947C238.59 318.947 247.442 316.225 250.182 323.725" stroke="#4B5563" stroke-width="1.193" stroke-linecap="round" stroke-linejoin="round"/>
<path d="M268.48 665.281C268.48 665.281 278.239 659.429 283.647 657.133C284.153 656.9 284.673 656.696 285.202 656.521C289.98 654.929 303.517 655.725 316.239 647.762C328.962 639.799 322.61 630.244 313.054 627.855C303.499 625.466 293.165 622.299 293.165 622.299L290.776 584.873C290.776 584.873 262.11 592.836 252.554 596.818C242.999 600.799 248.573 657.318 249.369 662.095C250.165 666.873 250.165 670.058 268.48 665.281Z" fill="#4B5563" stroke="#4B5563" stroke-width="1.193" stroke-linecap="round" stroke-linejoin="round"/>
<path d="M300.33 647.762C283.664 650.947 283.664 654.133 265.293 657.318C259.912 658.392 254.425 658.839 248.941 658.651C249.127 660.355 249.275 661.559 249.367 662.096C250.164 666.873 250.164 670.059 268.478 665.281C268.478 665.281 278.238 659.429 283.645 657.133C284.152 656.9 284.671 656.696 285.201 656.522C289.978 654.929 303.515 655.725 316.238 647.762C320.33 645.225 322.423 642.503 323.108 639.91C315.877 643.479 308.224 646.117 300.33 647.762Z" fill="white" stroke="#4B5563" stroke-width="1.193" stroke-linecap="round" stroke-linejoin="round"/>
<path d="M306.961 627.373C306.961 627.373 306.35 670.818 305.109 680.114C303.868 689.41 305.72 701.225 319.924 701.225C334.128 701.225 362.128 691.966 372.054 690.114C381.98 688.262 398.128 683.892 404.943 668.392C411.757 652.892 370.202 654.725 370.202 654.725L372.683 623.077C372.683 623.077 329.924 631.707 306.961 627.373Z" fill="#4B5563" stroke="#4B5563" stroke-width="1.193" stroke-linecap="round" stroke-linejoin="round"/>
<path d="M405.018 668.336C405.778 666.83 405.963 665.098 405.537 663.466C401.283 669.241 395.515 673.728 388.87 676.429C374.055 682.632 346.037 689.392 324.944 692.577C315.296 693.984 309.185 692.41 305.352 690.299C306.722 696.318 310.74 701.262 319.981 701.262C334.259 701.262 362.185 692.003 372.111 690.151C382.037 688.299 398.203 683.836 405.018 668.336Z" fill="white" stroke="#4B5563" stroke-width="1.193" stroke-linecap="round" stroke-linejoin="round"/>
<path d="M370.278 654.67C370.278 654.67 373.371 665.225 364.723 672.059" stroke="white" stroke-width="1.193" stroke-linecap="round" stroke-linejoin="round"/>
<path d="M302.628 604.41C302.628 604.41 301.665 623.281 302.721 627.058C306.684 641.392 307.943 638.04 337.739 637.41C367.536 636.781 379.573 624.892 382.684 617.447C385.795 610.003 382.684 593.855 381.443 588.262C380.202 582.67 370.332 580.855 366.536 581.447C362.739 582.04 304.48 598.207 302.628 604.41Z" fill="#9CA3AF" stroke="#4B5563" stroke-width="1.193" stroke-linecap="round" stroke-linejoin="round"/>
<path d="M97.8125 651.577V693.281C97.8263 694.913 98.2855 696.51 99.1405 697.9C99.9956 699.291 101.214 700.421 102.664 701.17L169.701 735.781C170.894 736.401 172.212 736.743 173.556 736.782C174.899 736.82 176.234 736.554 177.461 736.003L276.22 698.355C277.796 697.648 279.134 696.502 280.073 695.053C281.013 693.604 281.514 691.915 281.516 690.188V639.781L168.553 673.91L97.8125 651.577Z" fill="#14B8A6"/>
<path opacity="0.18" d="M173.535 672.41L168.572 673.91L97.8125 651.577V693.281C97.8263 694.913 98.2855 696.51 99.1405 697.9C99.9956 699.291 101.214 700.421 102.664 701.169L169.701 735.781C170.887 736.4 172.198 736.742 173.535 736.781V672.41Z" fill="#111827"/>
<path d="M97.8125 651.577V693.281C97.8263 694.913 98.2855 696.51 99.1405 697.9C99.9956 699.291 101.214 700.421 102.664 701.17L169.701 735.781C170.894 736.401 172.212 736.743 173.556 736.782C174.899 736.82 176.234 736.554 177.461 736.003L276.22 698.355C277.796 697.648 279.134 696.502 280.073 695.053C281.013 693.604 281.514 691.915 281.516 690.188V639.781L168.553 673.91L97.8125 651.577Z" stroke="#4B5563" stroke-width="1.193" stroke-linecap="round" stroke-linejoin="round"/>
<path d="M200.999 581.17L92.6652 615.985C91.8186 616.256 91.0804 616.79 90.5576 617.509C90.0349 618.228 89.7547 619.095 89.7578 619.985V650.873C89.7742 651.651 90.0062 652.41 90.428 653.063C90.8498 653.717 91.4448 654.241 92.1467 654.577L167.665 690.522C168.174 690.765 168.726 690.903 169.289 690.929C169.852 690.954 170.415 690.866 170.943 690.67L284.332 648.244C285.134 647.946 285.826 647.411 286.316 646.709C286.806 646.008 287.07 645.173 287.073 644.318L287.276 615.336C287.27 614.377 286.939 613.449 286.337 612.702C285.735 611.955 284.898 611.435 283.962 611.225L203.147 581.059C202.433 580.916 201.694 580.954 200.999 581.17V581.17Z" fill="white"/>
<path d="M167.535 690.503C168.044 690.746 168.596 690.885 169.159 690.91C169.722 690.935 170.285 690.847 170.813 690.651L284.331 648.244C285.134 647.946 285.826 647.411 286.315 646.709C286.805 646.008 287.069 645.173 287.072 644.318L287.276 615.336C287.279 614.35 286.923 613.396 286.276 612.651L169.146 655.91L167.535 690.503Z" fill="#14B8A6"/>
<path opacity="0.5" d="M167.535 690.503C168.044 690.746 168.596 690.885 169.159 690.91C169.722 690.935 170.285 690.847 170.813 690.651L284.331 648.244C285.134 647.946 285.826 647.411 286.315 646.709C286.805 646.008 287.069 645.173 287.072 644.318L287.276 615.336C287.279 614.35 286.923 613.396 286.276 612.651L169.146 655.91L167.535 690.503Z" fill="white"/>
<path d="M89.7578 619.892V650.781C89.7742 651.559 90.0062 652.317 90.428 652.971C90.8497 653.625 91.4447 654.149 92.1467 654.485L167.665 690.522C168.169 690.765 168.717 690.903 169.276 690.929V655.91L89.8874 619.17C89.8157 619.404 89.7722 619.647 89.7578 619.892V619.892Z" fill="#14B8A6"/>
<path d="M200.999 581.17L92.6652 615.985C91.8186 616.256 91.0804 616.79 90.5576 617.509C90.0349 618.228 89.7547 619.095 89.7578 619.985V650.873C89.7742 651.651 90.0062 652.41 90.428 653.063C90.8498 653.717 91.4448 654.241 92.1467 654.577L167.665 690.522C168.174 690.765 168.726 690.903 169.289 690.929C169.852 690.954 170.415 690.866 170.943 690.67L284.332 648.244C285.134 647.946 285.826 647.411 286.316 646.709C286.806 646.008 287.07 645.173 287.073 644.318L287.276 615.336C287.27 614.377 286.939 613.449 286.337 612.702C285.735 611.955 284.898 611.435 283.962 611.225L203.147 581.059C202.433 580.916 201.694 580.954 200.999 581.17V581.17Z" stroke="#4B5563" stroke-width="1.193" stroke-linecap="round" stroke-linejoin="round"/>
<path d="M349.796 524.355C349.796 524.355 364.056 531.17 371.519 544.836C378.982 558.503 373.37 584.54 369.019 592.614C364.667 600.688 335.519 604.41 325.593 604.41C315.667 604.41 313.796 603.17 313.796 603.17C313.796 603.17 282.148 609.373 262.278 613.096C242.408 616.818 247.463 570.281 253.593 549.17C259.722 528.059 294.556 517.521 308.833 517.521C323.111 517.521 349.796 524.355 349.796 524.355Z" fill="#4B5563" stroke="#4B5563" stroke-width="1.193" stroke-linecap="round" stroke-linejoin="round"/>
<path d="M313.793 603.17C313.793 603.17 340.478 593.91 351.645 570.281" stroke="white" stroke-width="1.193" stroke-linecap="round" stroke-linejoin="round"/>
<path d="M339.238 589.503C347.838 585.897 355.641 580.63 362.201 574.003" stroke="white" stroke-width="1.193" stroke-linecap="round" stroke-linejoin="round"/>
<path d="M276.556 544.836C276.556 544.836 283.963 583.929 280.259 600.059C276.556 616.188 254.815 618.688 249.852 616.818C244.889 614.948 247.37 576.485 247.37 557.244C247.37 538.003 266.63 539.244 276.556 544.836Z" fill="#9CA3AF" stroke="#4B5563" stroke-width="1.193" stroke-linecap="round" stroke-linejoin="round"/>
<path d="M118.293 440.558C118.293 440.558 113.96 465.984 117.052 478.429C118.628 485.36 121.582 491.903 125.738 497.67C125.738 497.67 110.219 520.633 113.33 539.855C116.441 559.077 124.441 561.577 124.441 561.577C124.441 561.577 117.627 596.966 129.997 609.373C142.367 621.781 169.719 635.429 200.127 629.855C230.534 624.281 251.015 623.021 257.219 612.466C263.423 601.91 259.701 555.373 259.701 555.373C259.701 555.373 258.46 503.873 257.219 472.207C255.978 440.54 251.664 415.114 236.738 402.707C221.812 390.299 156.052 409.54 136.201 422.558C116.349 435.577 118.293 440.558 118.293 440.558Z" fill="#14B8A6"/>
<path opacity="0.3" d="M122.719 440.558C122.719 440.558 118.367 466.003 121.478 478.429C123.045 485.363 125.999 491.908 130.163 497.67C130.163 497.67 114.645 520.633 117.756 539.855C120.867 559.077 128.867 561.577 128.867 561.577C128.867 561.577 122.034 596.966 134.423 609.373C146.812 621.781 174.219 635.429 204.7 629.855C235.182 624.281 255.608 623.021 261.812 612.466C268.015 601.91 264.293 555.373 264.293 555.373C264.293 555.373 263.052 503.873 261.812 472.207C260.571 440.54 256.256 415.114 241.33 402.707C226.404 390.299 160.645 409.54 140.793 422.558C120.941 435.577 122.719 440.558 122.719 440.558Z" fill="#111827"/>
<path d="M118.293 440.558C118.293 440.558 113.96 465.984 117.052 478.429C118.628 485.36 121.582 491.903 125.738 497.67C125.738 497.67 110.219 520.633 113.33 539.855C116.441 559.077 124.441 561.577 124.441 561.577C124.441 561.577 117.627 596.966 129.997 609.373C142.367 621.781 169.719 635.429 200.127 629.855C230.534 624.281 251.015 623.021 257.219 612.466C263.423 601.91 259.701 555.373 259.701 555.373C259.701 555.373 258.46 503.873 257.219 472.207C255.978 440.54 251.664 415.114 236.738 402.707C221.812 390.299 156.052 409.54 136.201 422.558C116.349 435.577 118.293 440.558 118.293 440.558Z" stroke="#4B5563" stroke-width="1.193" stroke-linecap="round" stroke-linejoin="round"/>
<path d="M125.738 497.67C135.346 504.224 146.339 508.469 157.858 510.076C169.377 511.682 181.111 510.605 192.146 506.929" stroke="#4B5563" stroke-width="1.193" stroke-linecap="round" stroke-linejoin="round"/>
<path d="M124.5 561.577C124.5 561.577 156.148 592.614 208.296 562.818" stroke="#4B5563" stroke-width="1.193" stroke-linecap="round" stroke-linejoin="round"/>
<path d="M247.999 410.151C247.999 410.151 236.221 392.151 220.073 382.225C203.925 372.299 162.369 364.855 145.61 361.744C128.851 358.633 110.851 359.892 105.888 378.41C100.925 396.929 101.536 428.059 106.499 441.707C111.462 455.355 131.943 463.429 148.091 454.133C164.24 444.836 208.906 408.818 224.425 406.966C239.943 405.114 246.758 416.985 247.999 410.151Z" fill="#9CA3AF"/>
<path opacity="0.3" d="M213.573 406.725C223.036 402.781 199.369 409.873 197.795 407.503C196.221 405.133 214.351 393.318 218.295 391.744C222.24 390.17 195.425 395.688 196.221 391.744C197.017 387.799 222.24 387.003 204.888 383.058C187.536 379.114 130.814 368.855 119.703 364.91C118.853 364.634 118.048 364.235 117.314 363.725C114.441 365.207 111.928 367.302 109.954 369.862C107.979 372.422 106.591 375.384 105.888 378.54C100.925 397.151 101.536 428.188 106.499 441.836C110.832 453.725 126.869 461.373 141.684 457.021C148.517 451.466 154.832 444.17 165.517 437.447C186.758 424.003 204.11 410.595 213.573 406.725Z" fill="#111827"/>
<path d="M247.999 410.151C247.999 410.151 236.221 392.151 220.073 382.225C203.925 372.299 162.369 364.855 145.61 361.744C128.851 358.633 110.851 359.892 105.888 378.41C100.925 396.929 101.536 428.059 106.499 441.707C111.462 455.355 131.943 463.429 148.091 454.133C164.24 444.836 208.906 408.818 224.425 406.966C239.943 405.114 246.758 416.985 247.999 410.151Z" stroke="#4B5563" stroke-width="1.193" stroke-linecap="round" stroke-linejoin="round"/>
<path d="M315.037 494.559C315.037 494.559 329.314 496.41 338.611 500.114C347.907 503.818 354.129 526.799 350.407 529.892C346.685 532.985 339.296 529.281 339.296 529.281C333.459 531.334 327.428 532.786 321.296 533.614C313.796 534.281 305.722 498.91 315.037 494.559Z" fill="#14B8A6" stroke="#4B5563" stroke-width="1.193" stroke-linecap="round" stroke-linejoin="round"/>
<path d="M267.869 492.688C267.869 492.688 270.351 492.688 283.999 486.485C297.647 480.281 308.832 480.281 317.517 493.892C326.202 507.503 329.925 524.318 324.925 534.244C319.925 544.17 301.351 551.003 291.406 551.003C281.462 551.003 280.295 538.04 280.295 538.04C280.295 538.04 279.054 517.559 272.888 510.114C266.721 502.67 265.388 494.559 267.869 492.688Z" fill="#9CA3AF" stroke="#4B5563" stroke-width="1.193" stroke-linecap="round" stroke-linejoin="round"/>
<path d="M221.943 410.151C235.591 405.188 252.98 408.299 259.184 425.67C265.387 443.04 270.962 493.929 270.962 493.929C270.962 493.929 286.48 495.781 292.684 502.633C298.887 509.484 301.943 526.836 300.758 535.521C299.573 544.207 277.795 560.336 252.98 560.966C228.165 561.596 210.147 549.855 201.462 518.133C192.776 486.41 196.221 438.207 196.221 438.207C196.221 438.207 199.369 424.003 204.11 420.836" fill="#14B8A6"/>
<path opacity="0.3" d="M300.759 535.522C302 526.836 298.908 509.447 292.685 502.633C292.445 502.355 292.148 502.096 291.889 501.836C292.633 507.414 293.078 513.026 293.222 518.651C294.463 555.077 243.556 548.985 233.296 522.596C227.741 508.392 226.185 446.077 209.63 441.355C200.074 438.633 196.815 446.114 195.778 452.947C195.445 470.818 196.037 498.355 201.463 518.133C210.148 549.799 228.148 561.577 252.982 560.966C277.815 560.355 299.519 544.207 300.759 535.522Z" fill="#111827"/>
<path d="M221.943 410.151C235.591 405.188 252.98 408.299 259.184 425.67C265.387 443.04 270.962 493.929 270.962 493.929C270.962 493.929 286.48 495.781 292.684 502.633C298.887 509.484 301.943 526.836 300.758 535.521C299.573 544.207 277.795 560.336 252.98 560.966C228.165 561.596 210.147 549.855 201.462 518.133C192.776 486.41 196.221 438.207 196.221 438.207C196.221 438.207 199.369 424.003 204.11 420.836" stroke="#4B5563" stroke-width="1.193" stroke-linecap="round" stroke-linejoin="round"/>
<path d="M270.961 493.929C270.961 493.929 275.813 516.54 250.887 528.947" stroke="#4B5563" stroke-width="1.193" stroke-linecap="round" stroke-linejoin="round"/>
<path d="M147.48 99.7809C147.48 94.6327 149.851 90.8364 155.203 90.8364C160.555 90.8364 163.036 94.5401 163.036 99.7809V117.836C163.036 122.985 160.647 126.781 155.203 126.781C149.758 126.781 147.48 123.077 147.48 117.836V99.7809ZM149.795 118.003C149.795 121.855 151.314 124.67 155.203 124.67C159.092 124.67 160.758 121.855 160.758 118.003V99.6327C160.758 95.7994 159.203 92.9661 155.203 92.9661C151.203 92.9661 149.795 95.7994 149.795 99.6327V118.003Z" fill="#4B5563"/>
<path d="M166.719 99.7809C166.719 94.6327 169.089 90.8364 174.441 90.8364C179.793 90.8364 182.274 94.5401 182.274 99.7809V117.836C182.274 122.985 179.904 126.781 174.441 126.781C168.978 126.781 166.719 123.077 166.719 117.836V99.7809ZM169.034 118.003C169.034 121.855 170.552 124.67 174.441 124.67C178.33 124.67 179.997 121.855 179.997 118.003V99.6327C179.997 95.7994 178.441 92.9661 174.441 92.9661C170.441 92.9661 169.034 95.7994 169.034 99.6327V118.003Z" fill="#4B5563"/>
<path d="M193.443 91.1514C198.887 91.1514 201.017 94.5773 201.017 99.7254V103.577C201.017 109.133 198.424 111.948 192.832 111.948H188.443V126.503H186.184V91.1514H193.443ZM192.832 109.837C196.924 109.837 198.684 107.985 198.684 103.725V99.5773C198.684 95.744 197.369 93.2625 193.443 93.2625H188.443V109.929L192.832 109.837Z" fill="#4B5563"/>
<path d="M219.388 99.6883V100.429H217.166V99.5216C217.166 95.8179 215.759 92.9661 211.925 92.9661C208.092 92.9661 206.666 95.7439 206.666 99.4846C206.666 108.059 219.444 108.207 219.444 118.003C219.444 123.096 217.222 126.836 211.814 126.836C206.407 126.836 204.203 123.133 204.203 118.003V116.151H206.425V118.114C206.425 121.818 207.888 124.633 211.777 124.633C215.666 124.633 217.129 121.892 217.129 118.114C217.129 109.633 204.351 109.485 204.351 99.5957C204.351 94.2994 206.666 90.855 211.87 90.7994C217.073 90.7439 219.388 94.5772 219.388 99.6883Z" fill="#4B5563"/>
<path d="M225.205 122.059V126.503H222.945V122.059H225.205Z" fill="#4B5563"/>
<path d="M231.517 122.059V126.503H229.258V122.059H231.517Z" fill="#4B5563"/>
<path d="M237.832 122.059V126.503H235.555V122.059H237.832Z" fill="#4B5563"/>
<path d="M154.944 142.577C160.499 142.577 162.518 146.003 162.518 151.17V155.003C162.518 160.559 159.944 163.392 154.351 163.392H149.944V177.929H147.629V142.577H154.944ZM154.351 161.262C158.425 161.262 160.203 159.41 160.203 155.151V151.003C160.203 147.17 158.888 144.707 154.944 144.707H149.944V161.262H154.351Z" fill="#4B5563"/>
<path d="M168.739 170.096L166.887 177.929H164.758L172.48 142.522H175.869L183.739 177.929H181.424L179.573 170.096H168.739ZM169.091 168.077H179.387L174.184 145.207L169.091 168.077Z" fill="#4B5563"/>
<path d="M202.424 151.17V153.799H200.202V151.022C200.202 147.318 198.739 144.355 194.85 144.355C190.961 144.355 189.498 147.244 189.498 151.022V169.411C189.498 173.114 190.961 176.022 194.85 176.022C198.739 176.022 200.202 173.188 200.202 169.411V161.781H195.443V159.67H202.35V169.262C202.35 174.355 200.128 178.188 194.72 178.188C189.313 178.188 187.109 174.355 187.109 169.262V151.17C187.109 146.077 189.332 142.244 194.72 142.244C200.109 142.244 202.424 146.114 202.424 151.17Z" fill="#4B5563"/>
<path d="M218.294 158.948V161.059H208.646V175.873H220.257V178.003H206.312V142.577H220.257V144.707H208.646V158.948H218.294Z" fill="#4B5563"/>
<path d="M233.997 177.929H231.867V142.577H234.904L245.441 172.429V142.577H247.552V177.929H244.978L233.867 146.448L233.997 177.929Z" fill="#4B5563"/>
<path d="M251.48 151.17C251.48 146.022 253.851 142.244 259.203 142.244C264.555 142.244 267.036 145.948 267.036 151.17V169.262C267.036 174.411 264.647 178.188 259.203 178.188C253.758 178.188 251.48 174.485 251.48 169.262V151.17ZM253.795 169.411C253.795 173.244 255.314 176.077 259.203 176.077C263.092 176.077 264.758 173.244 264.758 169.411V151.022C264.758 147.188 263.203 144.355 259.203 144.355C255.203 144.355 253.795 147.188 253.795 151.022V169.411Z" fill="#4B5563"/>
<path d="M276.924 177.929V144.707H269.758V142.577H286.424V144.707H279.202V177.929H276.924Z" fill="#4B5563"/>
<path d="M308.557 159.799V161.91H299.409V177.929H297.094V142.577H310.52V144.707H299.409V159.799H308.557Z" fill="#4B5563"/>
<path d="M313.961 151.17C313.961 146.022 316.331 142.244 321.683 142.244C327.035 142.244 329.516 145.948 329.516 151.17V169.262C329.516 174.411 327.146 178.188 321.683 178.188C316.22 178.188 313.961 174.485 313.961 169.262V151.17ZM316.276 169.411C316.276 173.244 317.794 176.077 321.683 176.077C325.572 176.077 327.239 173.244 327.239 169.411V151.022C327.239 147.188 325.683 144.355 321.683 144.355C317.683 144.355 316.276 147.188 316.276 151.022V169.411Z" fill="#4B5563"/>
<path d="M335.518 169.392C335.518 173.096 336.944 176.114 340.833 176.114C344.722 176.114 346.129 173.188 346.129 169.392V142.577H348.296V169.299C348.296 174.336 346.185 178.225 340.777 178.225C335.37 178.225 333.203 174.336 333.203 169.299V142.577H335.518V169.392Z" fill="#4B5563"/>
<path d="M354.408 177.929H352.297V142.577H355.315L365.927 172.429V142.577H368.056V177.929H365.464L354.352 146.448L354.408 177.929Z" fill="#4B5563"/>
<path d="M379.813 142.577C385.276 142.577 387.646 146.17 387.646 151.373V169.133C387.646 174.336 385.276 177.929 379.813 177.929H372.035V142.577H379.813ZM379.813 175.799C383.757 175.799 385.368 173.133 385.368 169.244V151.262C385.368 147.373 383.702 144.707 379.813 144.707H374.424V175.799H379.813Z" fill="#4B5563"/>
<path d="M497.297 505.114L522.501 445.614H537.593V505.114H544.13V517.688H537.593V533.67H524.001V517.688H497.297V505.114ZM523.964 505.114V472.04L510.001 505.114H523.964Z" fill="#14B8A6"/>
<path d="M549.297 466.744C549.297 452.67 556.704 444.521 570.297 444.521C583.89 444.521 591.297 452.577 591.297 466.744V512.521C591.297 526.614 583.89 534.744 570.297 534.744C556.704 534.744 549.297 526.688 549.297 512.521V466.744ZM563.13 513.41C563.13 519.707 565.89 522.096 570.297 522.096C574.704 522.096 577.464 519.707 577.464 513.41V465.873C577.464 459.577 574.686 457.188 570.297 457.188C565.908 457.188 563.13 459.577 563.13 465.873V513.41Z" fill="#14B8A6"/>
<path d="M596.965 505.114L622.113 445.614H637.206V505.114H643.743V517.688H637.206V533.67H623.613V517.688H596.965V505.114ZM623.613 505.114V472.04L609.669 505.114H623.613Z" fill="#14B8A6"/>
</svg>
